<svg width="17" height="21" viewBox="0 0 17 21" fill="none" xmlns="http://www.w3.org/2000/svg">
<path d="M4.98248 0.0141602C2.42948 0.0141602 0.982483 1.46186 0.982483 4.01416V19.0142C0.982483 19.7321 1.72849 20.2027 2.38849 19.9204L8.98248 17.108L15.5755 19.9204C16.2355 20.2033 16.9825 19.732 16.9825 19.0142V4.01416C16.9825 1.39076 15.6775 0.0141602 12.9825 0.0141602H4.98248ZM8.98248 5.01416C9.53448 5.01416 9.98248 5.46186 9.98248 6.01416V8.01416H11.9825C12.5345 8.01416 12.9825 8.46186 12.9825 9.01416C12.9825 9.56646 12.5345 10.0142 11.9825 10.0142H9.98248V12.0142C9.98248 12.5665 9.53448 13.0142 8.98248 13.0142C8.42948 13.0142 7.98248 12.5665 7.98248 12.0142V10.0142H5.98248C5.42948 10.0142 4.98248 9.56646 4.98248 9.01416C4.98248 8.46186 5.42948 8.01416 5.98248 8.01416H7.98248V6.01416C7.98248 5.46186 8.42948 5.01416 8.98248 5.01416Z" fill="white"/>
</svg>
