<svg width="21" height="20" viewBox="0 0 21 20" fill="none" xmlns="http://www.w3.org/2000/svg">
<path d="M10.0142 -0.000976562C4.49136 -0.000976562 0.0141602 4.47602 0.0141602 9.99902C0.0141602 15.522 4.49136 19.999 10.0142 19.999C15.5372 19.999 20.0142 15.522 20.0142 9.99902C20.0142 4.47602 15.5372 -0.000976562 10.0142 -0.000976562ZM10.0142 1.99902C14.4322 1.99902 18.0142 5.58102 18.0142 9.99902C18.0142 14.065 14.9412 17.302 11.0142 17.811V12.999H13.0142V9.99902H11.0142V8.99902C11.0142 8.42902 11.4952 7.99802 12.0142 7.99902C12.3102 7.99902 13.0142 7.99902 13.0142 7.99902V4.99902H11.0142C9.31516 5.01802 8.02516 6.36502 8.01416 7.99902V9.99902H6.01416V12.999H8.01416V17.593C4.58726 16.689 2.01416 13.71 2.01416 9.99902C2.01416 5.58102 5.59586 1.99902 10.0142 1.99902Z" fill="white" fill-opacity="0.8"/>
</svg>
