<svg width="19" height="19" viewBox="0 0 19 19" fill="none" xmlns="http://www.w3.org/2000/svg">
<path d="M5.99841 0.990723C3.23741 0.990723 0.998413 3.22972 0.998413 5.99072V13.9907C0.998413 16.7517 3.23741 18.9907 5.99841 18.9907H13.9984C16.7594 18.9907 18.9984 16.7517 18.9984 13.9907V5.99072C18.9984 3.22972 16.7594 0.990723 13.9984 0.990723H5.99841ZM5.99841 2.99072H13.9984C15.6554 2.99072 16.9984 4.33372 16.9984 5.99072V13.9907C16.9984 15.6477 15.6554 16.9907 13.9984 16.9907H5.99841C4.34141 16.9907 2.99841 15.6477 2.99841 13.9907V5.99072C2.99841 4.33372 4.34141 2.99072 5.99841 2.99072ZM13.9984 4.99072C13.4464 4.99072 12.9984 5.43872 12.9984 5.99072C12.9984 6.54272 13.4464 6.99072 13.9984 6.99072C14.5504 6.99072 14.9984 6.54272 14.9984 5.99072C14.9984 5.43872 14.5504 4.99072 13.9984 4.99072ZM9.99841 5.99072C7.78941 5.99072 5.99841 7.78172 5.99841 9.99072C5.99841 12.1997 7.78941 13.9907 9.99841 13.9907C12.2074 13.9907 13.9984 12.1997 13.9984 9.99072C13.9984 7.78172 12.2074 5.99072 9.99841 5.99072ZM9.99841 7.99072C11.1034 7.99072 11.9984 8.88572 11.9984 9.99072C11.9984 11.0957 11.1034 11.9907 9.99841 11.9907C8.89341 11.9907 7.99841 11.0957 7.99841 9.99072C7.99841 8.88572 8.89341 7.99072 9.99841 7.99072Z" fill="white" fill-opacity="0.8"/>
</svg>
