<svg width="20" height="19" viewBox="0 0 20 19" fill="none" xmlns="http://www.w3.org/2000/svg">
<path d="M19.9514 7.34296V7.15249V7.01915C19.6844 5.61414 19.008 4.31445 18.0037 3.27634C16.922 2.15892 15.588 1.30443 14.1083 0.781126C12.7931 0.284838 11.3984 0.0204346 9.98888 0.000181404C8.13088 -0.0101946 6.29857 0.424697 4.65214 1.26683C3.2105 1.92642 2.00038 2.988 1.17387 4.31818C0.347366 5.64836 -0.0586545 7.18777 0.00684022 8.74295C0.153388 10.2805 0.767307 11.74 1.76952 12.9334C2.77121 14.1135 4.05592 15.0329 5.50913 15.6095C6.40893 15.9481 7.3424 16.1938 8.29437 16.3429H8.40149C8.67417 16.3429 8.74234 16.4571 8.76182 16.4857C8.78133 16.5543 8.78133 16.6267 8.76182 16.6952C8.76182 16.7524 8.76182 16.8 8.76182 16.8476C8.62116 17.268 8.57792 17.7137 8.63522 18.1524C8.66169 18.3864 8.77587 18.6025 8.95572 18.759C9.13556 18.9156 9.36832 19.0014 9.60907 19C10.1734 18.9322 10.7119 18.7294 11.177 18.4095H11.2257C12.1995 17.8571 13.115 17.219 13.8064 16.7333C15.4751 15.6642 16.9913 14.3832 18.3154 12.9239C19.5925 11.3476 20.1806 9.34151 19.9514 7.34296ZM6.22979 10.3239H4.50606C4.44431 10.3252 4.38293 10.3142 4.32562 10.2917C4.2683 10.2692 4.21624 10.2356 4.17256 10.1929C4.12889 10.1502 4.09451 10.0993 4.07149 10.0432C4.04846 9.98716 4.03728 9.92713 4.03861 9.86674V6.32392C4.03728 6.26354 4.04846 6.20351 4.07149 6.14746C4.09451 6.09141 4.12889 6.0405 4.17256 5.99779C4.21624 5.95507 4.2683 5.92145 4.32562 5.89894C4.38293 5.87642 4.44431 5.86549 4.50606 5.86679C4.56826 5.86552 4.6301 5.87641 4.68794 5.89881C4.74578 5.92122 4.79847 5.95469 4.84291 5.99726C4.88736 6.03984 4.92266 6.09066 4.94676 6.14676C4.97086 6.20285 4.98326 6.26308 4.98325 6.32392V9.40008H6.22979C6.35635 9.40008 6.47772 9.44925 6.56721 9.53676C6.6567 9.62428 6.70698 9.74298 6.70698 9.86674C6.70699 9.92759 6.69459 9.98782 6.67049 10.0439C6.64639 10.1 6.61108 10.1508 6.56664 10.1934C6.5222 10.236 6.46951 10.2695 6.41167 10.2919C6.35382 10.3143 6.29199 10.3251 6.22979 10.3239ZM8.03142 9.85722C8.03142 9.98351 7.98012 10.1046 7.88881 10.1939C7.79749 10.2832 7.67364 10.3334 7.5445 10.3334C7.41535 10.3334 7.2915 10.2832 7.20018 10.1939C7.10887 10.1046 7.05757 9.98351 7.05757 9.85722V6.3144C7.05757 6.18811 7.10887 6.06699 7.20018 5.97769C7.2915 5.88838 7.41535 5.83821 7.5445 5.83821C7.67364 5.83821 7.79749 5.88838 7.88881 5.97769C7.98012 6.06699 8.03142 6.18811 8.03142 6.3144V9.85722ZM12.2969 9.85722C12.2956 9.95496 12.2629 10.0498 12.2035 10.1284C12.1441 10.207 12.061 10.2654 11.9658 10.2953H11.8197C11.7454 10.2961 11.6719 10.2792 11.6057 10.246C11.5396 10.2128 11.4826 10.1644 11.4399 10.1048L9.74541 7.83819V9.85722C9.74286 9.97933 9.69147 10.0956 9.60225 10.1811C9.51303 10.2665 9.39311 10.3144 9.26822 10.3144C9.20442 10.3183 9.14048 10.3093 9.08035 10.2881C9.02022 10.2669 8.96518 10.2338 8.91863 10.191C8.87208 10.1482 8.83501 10.0964 8.80972 10.039C8.78442 9.98161 8.77143 9.91973 8.77156 9.85722V6.41916C8.7716 6.3213 8.80247 6.22582 8.85998 6.14573C8.91748 6.06564 8.99882 6.00482 9.09293 5.97155C9.18792 5.94301 9.28966 5.9442 9.38393 5.97493C9.47821 6.00566 9.56032 6.06441 9.61881 6.14297L11.3231 8.42866V6.3144C11.3231 6.18811 11.3744 6.06699 11.4657 5.97769C11.557 5.88838 11.6808 5.83821 11.81 5.83821C11.9391 5.83821 12.063 5.88838 12.1543 5.97769C12.2456 6.06699 12.2969 6.18811 12.2969 6.3144V9.85722ZM15.7346 10.2382H13.3974C13.3356 10.2395 13.2742 10.2285 13.2169 10.206C13.1596 10.1835 13.1076 10.1499 13.0639 10.1072C13.0202 10.0645 12.9858 10.0135 12.9628 9.9575C12.9398 9.90145 12.9286 9.84142 12.9299 9.78103V6.23821C12.9299 6.11697 12.9792 6.0007 13.0668 5.91497C13.1545 5.82924 13.2734 5.78107 13.3974 5.78107H15.6567C15.7859 5.78107 15.9097 5.83124 16.001 5.92054C16.0924 6.00985 16.1437 6.13097 16.1437 6.25726C16.1437 6.38355 16.0924 6.50467 16.001 6.59397C15.9097 6.68327 15.7859 6.73344 15.6567 6.73344H13.8648V7.58105H15.3256C15.4496 7.58105 15.5685 7.62922 15.6562 7.71495C15.7438 7.80068 15.7931 7.91695 15.7931 8.03819C15.7931 8.16033 15.7442 8.2776 15.6568 8.36485C15.5694 8.4521 15.4505 8.50236 15.3256 8.50485H13.8648V9.35246H15.7346C15.8638 9.35246 15.9876 9.40263 16.0789 9.49194C16.1703 9.58124 16.2216 9.70236 16.2216 9.82865C16.2216 9.95494 16.1703 10.0761 16.0789 10.1654C15.9876 10.2547 15.8638 10.3048 15.7346 10.3048V10.2382Z" fill="white" fill-opacity="0.8"/>
</svg>
