<svg width="24" height="14" viewBox="0 0 24 14" fill="none" xmlns="http://www.w3.org/2000/svg">
<path d="M13.5374 7.00011C13.5374 10.728 10.5069 13.75 6.76884 13.75C3.03073 13.75 0 10.7273 0 7.00011C0 3.27293 3.0305 0.25 6.76884 0.25C10.5072 0.25 13.5374 3.27224 13.5374 7.00011ZM20.9628 7.00011C20.9628 10.5091 19.4476 13.3548 17.5784 13.3548C15.7092 13.3548 14.194 10.5091 14.194 7.00011C14.194 3.49113 15.709 0.645404 17.5782 0.645404C19.4474 0.645404 20.9628 3.49022 20.9628 7.00011ZM24 7.00011C24 10.1433 23.4672 12.6929 22.8097 12.6929C22.1522 12.6929 21.6196 10.144 21.6196 7.00011C21.6196 3.85624 22.1524 1.3073 22.8097 1.3073C23.4669 1.3073 24 3.85601 24 7.00011Z" fill="white" fill-opacity="0.8"/>
</svg>
