<svg width="25" height="24" viewBox="0 0 25 24" fill="none" xmlns="http://www.w3.org/2000/svg">
<path d="M8.49774 2.01416C5.94574 2.01416 4.49774 3.46256 4.49774 6.01626V21.0242C4.49774 21.7425 5.24375 22.2128 5.90375 21.9309L12.4977 19.1169L19.0917 21.9309C19.7517 22.2139 20.4977 21.7423 20.4977 21.0242V6.01626C20.4977 3.39146 19.1927 2.01426 16.4977 2.01416H8.49774ZM10.4977 8.01736C11.2187 8.01736 11.8647 8.38286 12.2167 8.86146C12.3127 8.99286 12.4977 9.26796 12.4977 9.26796C12.4977 9.26786 12.7118 8.99026 12.8098 8.86146C13.1778 8.37936 13.8237 8.01736 14.4977 8.01736C15.6027 8.01736 16.4977 8.85726 16.4977 9.89326C16.4977 12.6031 12.4977 14.6771 12.4977 14.6771C12.4977 14.6771 8.49774 12.6031 8.49774 9.89326C8.49774 8.85736 9.39274 8.01736 10.4977 8.01736Z" fill="white"/>
</svg>
