<svg width="24" height="24" viewBox="0 0 24 24" fill="none" xmlns="http://www.w3.org/2000/svg">
<path d="M10.0141 1.95312C5.59583 1.95312 2.01413 5.53513 2.01413 9.95314C2.01413 14.3712 5.59583 17.9532 10.0141 17.9532C11.8508 17.9532 13.5917 17.3222 14.942 16.2822L19.2953 20.6722C19.6859 21.0622 20.3423 21.0622 20.7329 20.6722C21.1234 20.2812 21.1234 19.6252 20.7329 19.2342L16.3494 14.8741C17.3902 13.5241 18.0141 11.7901 18.0141 9.95314C18.0141 5.53513 14.4324 1.95312 10.0141 1.95312ZM10.0141 3.95313C13.3278 3.95313 16.0141 6.63914 16.0141 9.95314C16.0141 13.2672 13.3278 15.9532 10.0141 15.9532C6.70043 15.9532 4.01413 13.2672 4.01413 9.95314C4.01413 6.63914 6.70043 3.95313 10.0141 3.95313Z" fill="white"/>
</svg>
