<svg width="21" height="19" viewBox="0 0 21 19" fill="none" xmlns="http://www.w3.org/2000/svg">
<path d="M14.0009 0.929688C11.2679 0.929688 9.00087 3.14768 9.00087 5.86768C9.00087 6.22068 9.01787 6.32371 9.01787 6.55371C6.65987 6.43771 5.14886 5.65272 2.95587 3.47272C2.75987 3.27872 2.50688 3.18369 2.25088 3.17969C2.20488 3.17869 2.05088 3.17969 2.00088 3.17969C1.44888 3.17969 1.00088 3.62769 1.00088 4.17969C1.00088 4.60869 1.00088 6.44669 1.00088 6.92969C1.00088 8.13769 1.40286 9.27671 2.02386 10.1267C2.02386 10.1347 2.00088 10.0237 2.00088 10.9297C2.00088 12.4797 2.63088 13.6397 3.67788 14.3297C3.33288 14.8677 2.39986 15.2557 1.65786 15.5857C1.21386 15.7827 0.870869 15.9317 0.688869 15.9927C0.466869 16.0687 0.280863 16.2427 0.157863 16.4607C0.149863 16.4737 0.132881 16.4787 0.125881 16.4927C0.118881 16.5057 0.101875 16.5087 0.094875 16.5237C-0.00912495 16.7547 -0.00513081 16.9887 0.0638691 17.2107C0.0668691 17.2217 0.0598691 17.2317 0.0638691 17.2427C0.140869 17.4647 0.313863 17.6497 0.532863 17.7737C0.544863 17.7807 0.550869 17.7977 0.563869 17.8047C0.577869 17.8117 0.580875 17.8297 0.594875 17.8357C2.19587 18.5567 4.06188 18.9297 6.00088 18.9297C12.6989 18.9297 18.2519 14.0917 19.0039 7.1897L19.9078 5.36768C20.2398 4.70268 19.7449 3.92969 19.0009 3.92969C19.0229 3.92969 18.9948 3.93068 18.9078 3.89868C18.7128 3.82568 18.4938 3.66669 18.2829 3.42969C18.1908 3.32669 18.0879 3.22169 18.0009 3.08569C17.0549 1.72369 15.6279 0.929688 14.0009 0.929688ZM14.0009 2.92969C14.9559 2.92969 15.7859 3.37569 16.3449 4.17969C16.4659 4.37169 16.6179 4.58968 16.7829 4.77368C17.0578 5.08268 17.9829 5.42267 17.9829 5.42267C17.9829 5.42267 17.4298 6.4607 17.0108 6.9447C16.4818 12.5777 11.7919 16.9297 6.00088 16.9297C5.30988 16.9297 4.35088 16.9157 3.45388 16.7507C5.31988 16.1927 7.00088 14.2057 7.00088 13.9297C5.01288 13.9297 4.27387 12.5277 4.08187 11.6177C4.66687 11.8397 6.22488 12.0037 7.01888 11.4257C4.08188 10.2347 3.00088 8.73569 3.00088 6.92969C3.00088 6.80369 3.00088 6.47269 3.00088 6.21069C5.17788 8.02969 6.95187 8.57168 10.0049 8.54968C10.3739 8.54768 11.0039 8.27769 11.0009 7.55469C10.9999 7.27669 11.0009 7.14168 11.0009 5.86768C11.0009 4.26268 12.3619 2.92969 14.0009 2.92969ZM15.0009 4.92969C14.4489 4.92969 14.0009 5.37769 14.0009 5.92969C14.0009 6.48169 14.4489 6.92969 15.0009 6.92969C15.5539 6.92969 16.0009 6.48169 16.0009 5.92969C16.0009 5.37769 15.5539 4.92969 15.0009 4.92969Z" fill="white" fill-opacity="0.8"/>
</svg>
