<svg width="20" height="15" viewBox="0 0 20 15" fill="none" xmlns="http://www.w3.org/2000/svg">
<path d="M3.9989 0.882812C1.7898 0.882812 -0.00109863 2.67381 -0.00109863 4.88281V10.8828C-0.00109863 13.0918 1.7898 14.8828 3.9989 14.8828H15.9989C18.208 14.8828 19.9989 13.0918 19.9989 10.8828V4.88281C19.9989 2.67381 18.208 0.882812 15.9989 0.882812H3.9989ZM8.7132 4.88281C8.8375 4.88281 8.9462 4.91781 9.048 4.97681C9.1059 5.00981 12.6688 7.20881 12.798 7.34381C12.9277 7.47981 12.9989 7.67481 12.9989 7.88281C12.9989 8.01481 12.9663 8.12682 12.9096 8.23482C12.8634 8.32182 12.8054 8.40681 12.731 8.46881C12.6094 8.56981 9.0255 10.8038 8.9364 10.8358C8.8636 10.8618 8.7944 10.8828 8.7132 10.8828C8.5347 10.8828 8.3696 10.8088 8.2444 10.6948C8.0929 10.5578 7.9989 10.3598 7.9989 10.1328C7.9989 9.92781 7.9989 5.83681 7.9989 5.63281C7.9989 5.21881 8.3187 4.88281 8.7132 4.88281Z" fill="white" fill-opacity="0.8"/>
</svg>
